<?xml version="1.0" encoding="UTF-8"?>
<!DOCTYPE svg PUBLIC "-//W3C//DTD SVG 1.1//EN" "http://www.w3.org/Graphics/SVG/1.1/DTD/svg11.dtd">
<svg xmlns="http://www.w3.org/2000/svg" version="1.1" width="612px" height="408px" style="shape-rendering:geometricPrecision; text-rendering:geometricPrecision; image-rendering:optimizeQuality; fill-rule:evenodd; clip-rule:evenodd" xmlns:xlink="http://www.w3.org/1999/xlink">
<g><path style="opacity:1" fill="#f57f4b" d="M 346.5,38.5 C 342.597,46.6476 338.93,54.9809 335.5,63.5C 334.957,63.56 334.624,63.8933 334.5,64.5C 340.128,65.4954 345.794,65.8288 351.5,65.5C 352.613,66.9464 352.78,68.6131 352,70.5C 342,83.1667 332,95.8333 322,108.5C 321.308,107.975 320.808,107.308 320.5,106.5C 324.041,97.2073 327.375,87.874 330.5,78.5C 325.593,78.6013 320.76,79.268 316,80.5C 314.027,80.6906 312.527,80.024 311.5,78.5C 320.604,66.743 329.27,54.743 337.5,42.5C 340.836,38.4911 344.169,34.4911 347.5,30.5C 348.5,30.8333 349.167,31.5 349.5,32.5C 348.481,34.604 347.481,36.604 346.5,38.5 Z"/></g>
<g><path style="opacity:1" fill="#e9f2f9" d="M 346.5,38.5 C 346.5,39.5 346.5,40.5 346.5,41.5C 382.021,44.9482 414.355,56.7815 443.5,77C 474.402,102.771 481.569,133.938 465,170.5C 464.191,175.363 464.858,180.03 467,184.5C 475.748,197.917 486.582,209.417 499.5,219C 534.926,250.02 549.426,288.853 543,335.5C 540.099,349.629 534.266,362.295 525.5,373.5C 515.577,374.64 505.577,374.807 495.5,374C 496.638,371.371 497.971,368.871 499.5,366.5C 499.248,364.927 498.582,363.594 497.5,362.5C 496.823,354.116 495.656,345.783 494,337.5C 492.136,331.44 489.47,325.774 486,320.5C 483.779,315.007 482.279,309.34 481.5,303.5C 481.071,296.053 481.571,288.719 483,281.5C 483.419,282.672 484.085,283.672 485,284.5C 485.508,291.922 486.342,299.256 487.5,306.5C 486.475,307.374 485.808,308.541 485.5,310C 486.497,311.596 487.663,313.096 489,314.5C 490.079,311.937 490.579,309.271 490.5,306.5C 492.04,299.589 493.04,292.589 493.5,285.5C 492.347,273.885 489.181,262.885 484,252.5C 481.104,250.467 477.937,249.134 474.5,248.5C 473.735,245.904 473.401,243.237 473.5,240.5C 477.729,237.665 479.562,233.665 479,228.5C 478.5,228 478,227.5 477.5,227C 472.589,225.508 467.589,225.174 462.5,226C 461.02,228.235 461.353,230.068 463.5,231.5C 462.656,235.099 462.323,238.766 462.5,242.5C 463.833,242.5 465.167,242.5 466.5,242.5C 466.5,244.5 466.5,246.5 466.5,248.5C 460.425,251.972 454.925,256.306 450,261.5C 447.578,256.683 445.078,252.016 442.5,247.5C 442.368,244.43 442.701,241.43 443.5,238.5C 445.199,238.473 446.533,237.806 447.5,236.5C 447.5,237.5 447.5,238.5 447.5,239.5C 453.981,240.526 456.314,238.026 454.5,232C 452.564,231.187 450.564,230.687 448.5,230.5C 442.878,226.562 437.211,222.562 431.5,218.5C 431.19,217.262 430.69,217.262 430,218.5C 427.931,224.206 425.765,229.872 423.5,235.5C 423.855,236.522 424.522,237.189 425.5,237.5C 425.833,237.5 426.167,237.5 426.5,237.5C 432.026,237.179 437.36,237.512 442.5,238.5C 438.648,238.489 436.815,240.489 437,244.5C 436.333,246.833 436.333,249.167 437,251.5C 438.145,252.684 439.312,252.684 440.5,251.5C 439.965,258.157 441.132,264.49 444,270.5C 445.126,271.944 446.626,272.61 448.5,272.5C 450.512,272.16 452.512,271.827 454.5,271.5C 453.776,279.479 453.442,287.479 453.5,295.5C 453.177,302.022 453.51,308.355 454.5,314.5C 455.991,332.802 456.991,351.135 457.5,369.5C 454.858,370.895 452.191,372.395 449.5,374C 442.508,374.5 435.508,374.666 428.5,374.5C 426.189,372.932 423.522,372.098 420.5,372C 423.423,369.955 426.257,367.788 429,365.5C 428.911,361.075 427.078,360.408 423.5,363.5C 421.667,366.5 419.833,369.5 418,372.5C 417.833,372 417.667,371.5 417.5,371C 420.338,365.163 423.005,359.33 425.5,353.5C 423.208,353.244 421.041,353.577 419,354.5C 416.132,359.801 414.965,365.467 415.5,371.5C 413.801,371.34 412.134,371.506 410.5,372C 409.748,372.671 409.414,373.504 409.5,374.5C 400.833,374.5 392.167,374.5 383.5,374.5C 383.461,371.19 384.794,368.524 387.5,366.5C 386.52,365.019 385.353,363.685 384,362.5C 383.793,356.086 383.293,349.753 382.5,343.5C 390.507,343.666 398.507,343.5 406.5,343C 408.078,341.906 409.745,341.072 411.5,340.5C 412.097,340.265 412.43,339.765 412.5,339C 409.71,330.264 407.377,321.431 405.5,312.5C 404.167,312.5 402.833,312.5 401.5,312.5C 419.173,309.888 426.673,299.554 424,281.5C 413.429,263.767 402.262,246.433 390.5,229.5C 393.241,229.293 395.574,228.293 397.5,226.5C 410.802,216.922 418.802,203.922 421.5,187.5C 422.833,181.5 422.833,175.5 421.5,169.5C 420.105,160.298 416.771,151.965 411.5,144.5C 395.711,123.685 375.045,115.685 349.5,120.5C 340.702,122.568 332.702,126.235 325.5,131.5C 322.024,125.859 317.357,121.359 311.5,118C 299.155,113.782 289.322,116.949 282,127.5C 274.287,145.515 266.121,163.182 257.5,180.5C 247.167,180.5 236.833,180.5 226.5,180.5C 223.139,174.816 219.806,169.149 216.5,163.5C 218.21,158.409 220.21,153.409 222.5,148.5C 214.776,147.202 207.109,147.202 199.5,148.5C 198.949,145.193 198.616,141.86 198.5,138.5C 200.06,130.574 198.393,123.407 193.5,117C 189.756,116.071 186.256,116.571 183,118.5C 180.59,122.563 178.923,126.896 178,131.5C 171.94,134.303 168.94,138.97 169,145.5C 169.278,146.416 169.778,147.082 170.5,147.5C 168.929,152.397 168.429,157.397 169,162.5C 171.904,164.227 175.07,164.893 178.5,164.5C 177.27,169.878 177.27,175.211 178.5,180.5C 171.833,180.5 165.167,180.5 158.5,180.5C 156.748,180.418 155.748,181.251 155.5,183C 161.489,207.088 167.156,231.254 172.5,255.5C 169.833,253.833 167.167,252.167 164.5,250.5C 163.815,248.586 163.315,246.586 163,244.5C 162.292,243.619 161.458,242.953 160.5,242.5C 161.832,238.966 162.832,235.3 163.5,231.5C 163.684,228.795 163.017,226.462 161.5,224.5C 162.536,222.609 162.536,220.776 161.5,219C 145.991,216.812 142.157,222.312 150,235.5C 150.671,236.252 151.504,236.586 152.5,236.5C 152.5,237.5 152.5,238.5 152.5,239.5C 146.477,244.656 142.977,251.323 142,259.5C 139.731,271.074 139.065,282.741 140,294.5C 140.717,295.044 141.217,295.711 141.5,296.5C 141.973,308.6 141.307,320.6 139.5,332.5C 136.883,344.319 135.883,356.319 136.5,368.5C 137.15,370.435 137.483,372.435 137.5,374.5C 131.5,374.5 125.5,374.5 119.5,374.5C 119.5,373.5 119.5,372.5 119.5,371.5C 117.5,371.5 115.5,371.5 113.5,371.5C 113.795,365.989 112.962,360.656 111,355.5C 109.865,353.197 108.032,351.864 105.5,351.5C 103.734,351.434 102.734,352.268 102.5,354C 106.146,359.457 109.146,365.291 111.5,371.5C 110.833,372.833 110.167,372.833 109.5,371.5C 108.237,368.397 106.737,365.397 105,362.5C 100.543,359.195 98.5429,360.195 99,365.5C 102.253,367.543 105.42,369.71 108.5,372C 105.833,372.333 103.167,372.667 100.5,373C 99.944,373.383 99.6107,373.883 99.5,374.5C 94.3054,374.821 89.3054,374.487 84.5,373.5C 58.1641,333.37 59.3307,294.037 88,255.5C 93,249.833 98,244.167 103,238.5C 107.289,230.347 108.622,221.681 107,212.5C 101.667,196.5 96.3333,180.5 91,164.5C 88.8541,153.286 90.8541,142.953 97,133.5C 114.507,110.328 137.674,96.8283 166.5,93C 183.833,92.6667 201.167,92.3333 218.5,92C 230.837,91.3317 242.171,87.665 252.5,81C 263.415,69.7462 275.748,60.4129 289.5,53C 304.826,46.5011 320.826,43.0011 337.5,42.5C 329.27,54.743 320.604,66.743 311.5,78.5C 312.527,80.024 314.027,80.6906 316,80.5C 320.76,79.268 325.593,78.6013 330.5,78.5C 327.375,87.874 324.041,97.2073 320.5,106.5C 320.808,107.308 321.308,107.975 322,108.5C 332,95.8333 342,83.1667 352,70.5C 352.78,68.6131 352.613,66.9464 351.5,65.5C 346.167,64.8333 340.833,64.1667 335.5,63.5C 338.93,54.9809 342.597,46.6476 346.5,38.5 Z"/></g>
<g><path style="opacity:1" fill="#f2a98b" d="M 335.5,63.5 C 340.833,64.1667 346.167,64.8333 351.5,65.5C 345.794,65.8288 340.128,65.4954 334.5,64.5C 334.624,63.8933 334.957,63.56 335.5,63.5 Z"/></g>
<g><path style="opacity:1" fill="#b1c4fe" d="M 239.5,104.5 C 240.777,105.694 241.444,107.36 241.5,109.5C 242.003,117.209 242.836,124.876 244,132.5C 247.362,129.985 251.029,127.985 255,126.5C 256.5,126.667 257.333,127.5 257.5,129C 255.986,141.25 253.986,153.416 251.5,165.5C 250.914,165.291 250.414,164.957 250,164.5C 249.313,157.047 247.98,149.714 246,142.5C 242.44,146.248 238.273,148.915 233.5,150.5C 235.371,135.111 237.371,119.778 239.5,104.5 Z"/></g>
<g><path style="opacity:1" fill="#2f4068" d="M 198.5,138.5 C 196.453,136.925 194.119,135.925 191.5,135.5C 194.588,132.237 195.922,128.237 195.5,123.5C 192.381,125.051 189.048,126.051 185.5,126.5C 185.599,129.237 185.265,131.904 184.5,134.5C 182.011,134.298 179.677,134.798 177.5,136C 174.5,139.514 172.167,143.347 170.5,147.5C 169.778,147.082 169.278,146.416 169,145.5C 168.94,138.97 171.94,134.303 178,131.5C 178.923,126.896 180.59,122.563 183,118.5C 186.256,116.571 189.756,116.071 193.5,117C 198.393,123.407 200.06,130.574 198.5,138.5 Z"/></g>
<g><path style="opacity:1" fill="#f57e4a" d="M 325.5,131.5 C 328.907,137.309 332.574,142.975 336.5,148.5C 343.476,159.465 350.809,170.131 358.5,180.5C 363.906,189.641 369.572,198.641 375.5,207.5C 380.5,214.833 385.5,222.167 390.5,229.5C 402.262,246.433 413.429,263.767 424,281.5C 426.673,299.554 419.173,309.888 401.5,312.5C 394.814,312.527 388.148,312.861 381.5,313.5C 380.167,313.5 378.833,313.5 377.5,313.5C 377.737,312.209 377.404,311.209 376.5,310.5C 376.5,307.5 376.5,304.5 376.5,301.5C 386.552,300.663 396.552,299.496 406.5,298C 411.153,294.212 412.653,289.378 411,283.5C 377.667,233.5 344.333,183.5 311,133.5C 304.633,127.888 298.633,128.221 293,134.5C 277.88,167.737 263.047,201.07 248.5,234.5C 245.141,231.471 241.808,228.471 238.5,225.5C 241.837,217.155 245.17,208.821 248.5,200.5C 251.284,196.595 253.284,192.262 254.5,187.5C 256.293,185.574 257.293,183.241 257.5,180.5C 266.121,163.182 274.287,145.515 282,127.5C 289.322,116.949 299.155,113.782 311.5,118C 317.357,121.359 322.024,125.859 325.5,131.5 Z"/></g>
<g><path style="opacity:1" fill="#dbe7fd" d="M 411.5,144.5 C 409.516,143.844 407.516,143.178 405.5,142.5C 401.888,144.809 397.888,145.976 393.5,146C 391.789,147.133 391.289,148.633 392,150.5C 394.737,151.56 397.57,152.394 400.5,153C 403.225,155.942 405.225,159.275 406.5,163C 411.705,162.865 415.372,165.198 417.5,170C 419.066,170.765 420.399,170.598 421.5,169.5C 422.833,175.5 422.833,181.5 421.5,187.5C 421.682,185.409 421.348,183.409 420.5,181.5C 413.275,179.942 408.608,175.609 406.5,168.5C 404.651,166.826 402.484,165.826 400,165.5C 397.333,166.167 394.667,166.833 392,167.5C 383.693,164.074 379.693,166.741 380,175.5C 375.26,179.492 375.427,183.325 380.5,187C 384.253,188.989 388.253,189.822 392.5,189.5C 391.656,193.494 391.156,197.494 391,201.5C 393.727,204.731 396.894,207.397 400.5,209.5C 396.279,212.555 392.945,216.388 390.5,221C 391.839,224.18 394.173,226.014 397.5,226.5C 395.574,228.293 393.241,229.293 390.5,229.5C 385.5,222.167 380.5,214.833 375.5,207.5C 376.097,207.265 376.43,206.765 376.5,206C 374.669,197.676 372.336,189.509 369.5,181.5C 365.893,180.511 362.226,180.177 358.5,180.5C 350.809,170.131 343.476,159.465 336.5,148.5C 340.191,149.762 343.691,151.429 347,153.5C 349.638,152.083 351.472,149.916 352.5,147C 357.267,146.533 361.933,147.033 366.5,148.5C 366.67,147.178 366.337,146.011 365.5,145C 362.65,143.829 359.816,142.662 357,141.5C 357.137,137.714 357.804,134.047 359,130.5C 356.833,128.17 355.166,125.503 354,122.5C 352.89,120.963 351.39,120.297 349.5,120.5C 375.045,115.685 395.711,123.685 411.5,144.5 Z"/></g>
<g><path style="opacity:1" fill="#bbcdfe" d="M 349.5,120.5 C 351.39,120.297 352.89,120.963 354,122.5C 355.166,125.503 356.833,128.17 359,130.5C 357.804,134.047 357.137,137.714 357,141.5C 359.816,142.662 362.65,143.829 365.5,145C 366.337,146.011 366.67,147.178 366.5,148.5C 361.933,147.033 357.267,146.533 352.5,147C 351.472,149.916 349.638,152.083 347,153.5C 343.691,151.429 340.191,149.762 336.5,148.5C 332.574,142.975 328.907,137.309 325.5,131.5C 332.702,126.235 340.702,122.568 349.5,120.5 Z"/></g>
<g><path style="opacity:1" fill="#f6ac7b" d="M 191.5,135.5 C 188.875,136.924 186.542,136.591 184.5,134.5C 185.265,131.904 185.599,129.237 185.5,126.5C 189.048,126.051 192.381,125.051 195.5,123.5C 195.922,128.237 194.588,132.237 191.5,135.5 Z"/></g>
<g><path style="opacity:1" fill="#bccefe" d="M 364.5,125.5 C 367.62,126.86 370.953,127.693 374.5,128C 376.09,129.046 377.59,130.213 379,131.5C 379.667,132.5 379.667,133.5 379,134.5C 375.776,135.688 372.943,137.522 370.5,140C 369.056,140.781 367.723,140.614 366.5,139.5C 363.874,135.03 363.208,130.363 364.5,125.5 Z"/></g>
<g><path style="opacity:1" fill="#e6edfd" d="M 376.5,301.5 C 376.664,298.813 376.497,296.146 376,293.5C 373.807,289.114 371.64,284.78 369.5,280.5C 374.049,280.391 378.382,279.391 382.5,277.5C 383.647,275.235 383.814,272.902 383,270.5C 380.588,265.341 377.921,260.341 375,255.5C 372.843,253.505 370.343,252.172 367.5,251.5C 367.5,251.167 367.5,250.833 367.5,250.5C 372.369,249.438 374.202,246.438 373,241.5C 371.435,237.6 369.435,233.934 367,230.5C 362.363,225.735 357.196,225.235 351.5,229C 350.54,230.419 349.707,231.919 349,233.5C 349.508,238.515 349.508,243.515 349,248.5C 350.789,250.229 352.956,250.896 355.5,250.5C 355.5,250.833 355.5,251.167 355.5,251.5C 352.325,251.503 349.492,252.503 347,254.5C 344.998,258.342 343.498,262.342 342.5,266.5C 340.5,266.5 338.5,266.5 336.5,266.5C 338.569,273.32 341.236,279.987 344.5,286.5C 345.689,287.429 347.022,287.762 348.5,287.5C 347.103,293.071 346.436,298.738 346.5,304.5C 306.134,307.145 265.801,309.979 225.5,313C 221.301,310.775 218.968,307.275 218.5,302.5C 220.894,296.046 223.561,289.713 226.5,283.5C 247.284,278.595 256.117,265.595 253,244.5C 251.746,240.996 250.246,237.663 248.5,234.5C 263.047,201.07 277.88,167.737 293,134.5C 298.633,128.221 304.633,127.888 311,133.5C 344.333,183.5 377.667,233.5 411,283.5C 412.653,289.378 411.153,294.212 406.5,298C 396.552,299.496 386.552,300.663 376.5,301.5 Z"/></g>
<g><path style="opacity:1" fill="#f79648" d="M 184.5,134.5 C 186.542,136.591 188.875,136.924 191.5,135.5C 194.119,135.925 196.453,136.925 198.5,138.5C 198.616,141.86 198.949,145.193 199.5,148.5C 197.837,153.154 196.171,157.821 194.5,162.5C 190.353,163.167 186.353,163.834 182.5,164.5C 181.167,164.5 179.833,164.5 178.5,164.5C 175.07,164.893 171.904,164.227 169,162.5C 168.429,157.397 168.929,152.397 170.5,147.5C 172.167,143.347 174.5,139.514 177.5,136C 179.677,134.798 182.011,134.298 184.5,134.5 Z"/></g>
<g><path style="opacity:1" fill="#bccefe" d="M 411.5,144.5 C 416.771,151.965 420.105,160.298 421.5,169.5C 420.399,170.598 419.066,170.765 417.5,170C 415.372,165.198 411.705,162.865 406.5,163C 405.225,159.275 403.225,155.942 400.5,153C 397.57,152.394 394.737,151.56 392,150.5C 391.289,148.633 391.789,147.133 393.5,146C 397.888,145.976 401.888,144.809 405.5,142.5C 407.516,143.178 409.516,143.844 411.5,144.5 Z"/></g>
<g><path style="opacity:1" fill="#273a65" d="M 216.5,163.5 C 205.248,164.477 193.914,164.811 182.5,164.5C 186.353,163.834 190.353,163.167 194.5,162.5C 196.171,157.821 197.837,153.154 199.5,148.5C 207.109,147.202 214.776,147.202 222.5,148.5C 220.21,153.409 218.21,158.409 216.5,163.5 Z"/></g>
<g><path style="opacity:1" fill="#e8eaee" d="M 208.5,154.5 C 210.337,154.639 210.67,155.306 209.5,156.5C 208.702,156.043 208.369,155.376 208.5,154.5 Z"/></g>
<g><path style="opacity:1" fill="#edd5c4" d="M 177.5,153.5 C 178.782,154.708 178.782,156.042 177.5,157.5C 176.374,156.192 176.374,154.858 177.5,153.5 Z"/></g>
<g><path style="opacity:1" fill="#2b5096" d="M 216.5,163.5 C 219.806,169.149 223.139,174.816 226.5,180.5C 227.596,183.032 228.929,185.365 230.5,187.5C 232.438,191.043 234.105,194.71 235.5,198.5C 234.167,198.5 232.833,198.5 231.5,198.5C 225.839,194.17 220.506,189.504 215.5,184.5C 213.653,182.139 212.32,179.472 211.5,176.5C 210.192,175.374 208.858,175.374 207.5,176.5C 204.993,177.892 202.327,178.892 199.5,179.5C 192.543,180.386 185.543,180.72 178.5,180.5C 177.27,175.211 177.27,169.878 178.5,164.5C 179.833,164.5 181.167,164.5 182.5,164.5C 193.914,164.811 205.248,164.477 216.5,163.5 Z"/></g>
<g><path style="opacity:1" fill="#f57e4a" d="M 314.5,164.5 C 316.5,164.5 318.5,164.5 320.5,164.5C 321.433,192.837 322.433,221.17 323.5,249.5C 316.326,250.048 309.159,250.715 302,251.5C 300.674,251.245 299.674,250.578 299,249.5C 295.581,221.815 292.081,194.148 288.5,166.5C 297.358,166.392 306.025,165.725 314.5,164.5 Z"/></g>
<g><path style="opacity:1" fill="#bbcdfe" d="M 421.5,187.5 C 418.802,203.922 410.802,216.922 397.5,226.5C 394.173,226.014 391.839,224.18 390.5,221C 392.945,216.388 396.279,212.555 400.5,209.5C 396.894,207.397 393.727,204.731 391,201.5C 391.156,197.494 391.656,193.494 392.5,189.5C 388.253,189.822 384.253,188.989 380.5,187C 375.427,183.325 375.26,179.492 380,175.5C 379.693,166.741 383.693,164.074 392,167.5C 394.667,166.833 397.333,166.167 400,165.5C 402.484,165.826 404.651,166.826 406.5,168.5C 408.608,175.609 413.275,179.942 420.5,181.5C 421.348,183.409 421.682,185.409 421.5,187.5 Z"/></g>
<g><path style="opacity:1" fill="#263b68" d="M 215.5,184.5 C 214.655,185.671 213.989,187.005 213.5,188.5C 211.748,185.328 209.748,182.328 207.5,179.5C 207.5,178.5 207.5,177.5 207.5,176.5C 208.858,175.374 210.192,175.374 211.5,176.5C 212.32,179.472 213.653,182.139 215.5,184.5 Z"/></g>
<g><path style="opacity:1" fill="#dae6f5" d="M 207.5,176.5 C 207.5,177.5 207.5,178.5 207.5,179.5C 206.833,179.5 206.5,179.833 206.5,180.5C 203.941,180.802 201.607,180.468 199.5,179.5C 202.327,178.892 204.993,177.892 207.5,176.5 Z"/></g>
<g><path style="opacity:1" fill="#94b1f5" d="M 158.5,180.5 C 164.275,205.433 170.609,230.267 177.5,255C 177.164,256.03 176.497,256.53 175.5,256.5C 174.391,256.443 173.391,256.11 172.5,255.5C 167.156,231.254 161.489,207.088 155.5,183C 155.748,181.251 156.748,180.418 158.5,180.5 Z"/></g>
<g><path style="opacity:1" fill="#acc0fd" d="M 199.5,179.5 C 201.607,180.468 203.941,180.802 206.5,180.5C 206.073,183.01 205.407,185.343 204.5,187.5C 192.149,187.168 179.815,187.501 167.5,188.5C 168.816,192.429 169.816,196.429 170.5,200.5C 175.729,218.98 180.396,237.647 184.5,256.5C 181.344,257.551 178.344,257.551 175.5,256.5C 176.497,256.53 177.164,256.03 177.5,255C 170.609,230.267 164.275,205.433 158.5,180.5C 165.167,180.5 171.833,180.5 178.5,180.5C 185.543,180.72 192.543,180.386 199.5,179.5 Z"/></g>
<g><path style="opacity:1" fill="#2f5199" d="M 207.5,179.5 C 209.748,182.328 211.748,185.328 213.5,188.5C 211.768,192.697 210.435,197.031 209.5,201.5C 208.833,201.833 208.167,202.167 207.5,202.5C 206.167,202.167 204.833,201.833 203.5,201.5C 203.5,201.167 203.5,200.833 203.5,200.5C 203.739,196.158 204.073,191.824 204.5,187.5C 205.407,185.343 206.073,183.01 206.5,180.5C 206.5,179.833 206.833,179.5 207.5,179.5 Z"/></g>
<g><path style="opacity:1" fill="#acc0fd" d="M 226.5,180.5 C 236.833,180.5 247.167,180.5 257.5,180.5C 257.293,183.241 256.293,185.574 254.5,187.5C 246.5,187.5 238.5,187.5 230.5,187.5C 228.929,185.365 227.596,183.032 226.5,180.5 Z"/></g>
<g><path style="opacity:1" fill="#b2c2fa" d="M 358.5,180.5 C 362.226,180.177 365.893,180.511 369.5,181.5C 372.336,189.509 374.669,197.676 376.5,206C 376.43,206.765 376.097,207.265 375.5,207.5C 369.572,198.641 363.906,189.641 358.5,180.5 Z"/></g>
<g><path style="opacity:1" fill="#607cf4" d="M 204.5,187.5 C 204.073,191.824 203.739,196.158 203.5,200.5C 192.5,200.5 181.5,200.5 170.5,200.5C 169.816,196.429 168.816,192.429 167.5,188.5C 179.815,187.501 192.149,187.168 204.5,187.5 Z"/></g>
<g><path style="opacity:1" fill="#617ef1" d="M 215.5,184.5 C 220.506,189.504 225.839,194.17 231.5,198.5C 231.5,199.167 231.5,199.833 231.5,200.5C 224.352,201.492 217.019,201.825 209.5,201.5C 210.435,197.031 211.768,192.697 213.5,188.5C 213.989,187.005 214.655,185.671 215.5,184.5 Z"/></g>
<g><path style="opacity:1" fill="#607bf2" d="M 230.5,187.5 C 238.5,187.5 246.5,187.5 254.5,187.5C 253.284,192.262 251.284,196.595 248.5,200.5C 245.167,200.5 241.833,200.5 238.5,200.5C 237.5,199.833 236.5,199.167 235.5,198.5C 234.105,194.71 232.438,191.043 230.5,187.5 Z"/></g>
<g><path style="opacity:1" fill="#d9e4fc" d="M 175.5,191.5 C 178.275,191.834 178.941,193.167 177.5,195.5C 175.889,194.68 175.222,193.346 175.5,191.5 Z"/></g>
<g><path style="opacity:1" fill="#cdd9fb" d="M 181.5,191.5 C 183.912,191.694 184.912,193.027 184.5,195.5C 181.046,195.733 180.046,194.4 181.5,191.5 Z"/></g>
<g><path style="opacity:1" fill="#d7e3fc" d="M 187.5,191.5 C 190.275,191.834 190.941,193.167 189.5,195.5C 187.889,194.68 187.222,193.346 187.5,191.5 Z"/></g>
<g><path style="opacity:1" fill="#edaa84" d="M 231.5,198.5 C 232.833,198.5 234.167,198.5 235.5,198.5C 236.5,199.167 237.5,199.833 238.5,200.5C 239.29,201.401 240.29,202.068 241.5,202.5C 238.713,203.477 235.713,203.81 232.5,203.5C 232.737,202.209 232.404,201.209 231.5,200.5C 231.5,199.833 231.5,199.167 231.5,198.5 Z"/></g>
<g><path style="opacity:1" fill="#7498ef" d="M 170.5,200.5 C 181.5,200.5 192.5,200.5 203.5,200.5C 203.5,200.833 203.5,201.167 203.5,201.5C 203.69,203.959 202.69,205.626 200.5,206.5C 198.915,207.002 198.415,208.002 199,209.5C 201.5,212 204,214.5 206.5,217C 207.332,217.688 207.998,217.521 208.5,216.5C 208.058,215.261 207.391,214.261 206.5,213.5C 206.323,209.766 206.656,206.099 207.5,202.5C 208.167,202.167 208.833,201.833 209.5,201.5C 217.019,201.825 224.352,201.492 231.5,200.5C 232.404,201.209 232.737,202.209 232.5,203.5C 233.694,204.777 235.36,205.444 237.5,205.5C 240.131,205.679 242.465,205.013 244.5,203.5C 243.675,202.614 242.675,202.281 241.5,202.5C 240.29,202.068 239.29,201.401 238.5,200.5C 241.833,200.5 245.167,200.5 248.5,200.5C 245.17,208.821 241.837,217.155 238.5,225.5C 221.466,218.68 207.633,222.68 197,237.5C 194.615,241.924 193.115,246.591 192.5,251.5C 190.812,254.607 188.145,256.274 184.5,256.5C 180.396,237.647 175.729,218.98 170.5,200.5 Z"/></g>
<g><path style="opacity:1" fill="#f1ac82" d="M 203.5,201.5 C 204.833,201.833 206.167,202.167 207.5,202.5C 206.656,206.099 206.323,209.766 206.5,213.5C 203.357,212.254 201.357,209.92 200.5,206.5C 202.69,205.626 203.69,203.959 203.5,201.5 Z"/></g>
<g><path style="opacity:1" fill="#37446d" d="M 241.5,202.5 C 242.675,202.281 243.675,202.614 244.5,203.5C 242.465,205.013 240.131,205.679 237.5,205.5C 235.36,205.444 233.694,204.777 232.5,203.5C 235.713,203.81 238.713,203.477 241.5,202.5 Z"/></g>
<g><path style="opacity:1" fill="#34446f" d="M 200.5,206.5 C 201.357,209.92 203.357,212.254 206.5,213.5C 207.391,214.261 208.058,215.261 208.5,216.5C 207.998,217.521 207.332,217.688 206.5,217C 204,214.5 201.5,212 199,209.5C 198.415,208.002 198.915,207.002 200.5,206.5 Z"/></g>
<g><path style="opacity:1" fill="#1c3863" d="M 161.5,224.5 C 161.817,228.172 160.151,229.838 156.5,229.5C 157.32,233.222 155.987,235.555 152.5,236.5C 151.504,236.586 150.671,236.252 150,235.5C 142.157,222.312 145.991,216.812 161.5,219C 162.536,220.776 162.536,222.609 161.5,224.5 Z"/></g>
<g><path style="opacity:1" fill="#b0c2fc" d="M 431.5,218.5 C 437.211,222.562 442.878,226.562 448.5,230.5C 448.567,231.959 448.234,233.292 447.5,234.5C 443.154,234.334 438.821,234.501 434.5,235C 431.543,235.279 428.877,236.113 426.5,237.5C 426.167,237.5 425.833,237.5 425.5,237.5C 427.5,231.167 429.5,224.833 431.5,218.5 Z"/></g>
<g><path style="opacity:1" fill="#32588d" d="M 238.5,225.5 C 241.808,228.471 245.141,231.471 248.5,234.5C 250.246,237.663 251.746,240.996 253,244.5C 256.117,265.595 247.284,278.595 226.5,283.5C 221.797,283.563 217.13,283.229 212.5,282.5C 209.635,280.144 206.468,278.144 203,276.5C 200.013,278.654 197.18,280.987 194.5,283.5C 193.127,283.657 191.793,283.49 190.5,283C 191.056,282.617 191.389,282.117 191.5,281.5C 191.5,281.167 191.5,280.833 191.5,280.5C 194.479,278.188 197.146,275.521 199.5,272.5C 196.669,267.837 194.669,262.837 193.5,257.5C 193.795,255.265 193.461,253.265 192.5,251.5C 193.115,246.591 194.615,241.924 197,237.5C 207.633,222.68 221.466,218.68 238.5,225.5 Z"/></g>
<g><path style="opacity:1" fill="#f8af7d" d="M 161.5,224.5 C 163.017,226.462 163.684,228.795 163.5,231.5C 162.832,235.3 161.832,238.966 160.5,242.5C 157.993,241.108 155.327,240.108 152.5,239.5C 152.5,238.5 152.5,237.5 152.5,236.5C 155.987,235.555 157.32,233.222 156.5,229.5C 160.151,229.838 161.817,228.172 161.5,224.5 Z"/></g>
<g><path style="opacity:1" fill="#92b4f3" d="M 236.5,228.5 C 228.888,245.39 221.554,262.39 214.5,279.5C 197.516,271.518 192.016,258.518 198,240.5C 207.415,225.528 220.248,221.528 236.5,228.5 Z"/></g>
<g><path style="opacity:1" fill="#f5a05d" d="M 431.5,218.5 C 429.5,224.833 427.5,231.167 425.5,237.5C 424.522,237.189 423.855,236.522 423.5,235.5C 425.765,229.872 427.931,224.206 430,218.5C 430.69,217.262 431.19,217.262 431.5,218.5 Z"/></g>
<g><path style="opacity:1" fill="#353f67" d="M 473.5,240.5 C 473.785,238.712 473.452,237.045 472.5,235.5C 471.155,234.653 470.155,233.487 469.5,232C 467.527,231.505 465.527,231.338 463.5,231.5C 461.353,230.068 461.02,228.235 462.5,226C 467.589,225.174 472.589,225.508 477.5,227C 478,227.5 478.5,228 479,228.5C 479.562,233.665 477.729,237.665 473.5,240.5 Z"/></g>
<g><path style="opacity:1" fill="#1f3a65" d="M 367.5,250.5 C 366.178,250.67 365.011,250.337 364,249.5C 363.502,246.183 363.335,242.85 363.5,239.5C 361.801,239.66 360.134,239.494 358.5,239C 356.983,237.315 355.316,235.815 353.5,234.5C 352.16,235.688 351.493,237.188 351.5,239C 352.752,242.926 354.086,246.759 355.5,250.5C 352.956,250.896 350.789,250.229 349,248.5C 349.508,243.515 349.508,238.515 349,233.5C 349.707,231.919 350.54,230.419 351.5,229C 357.196,225.235 362.363,225.735 367,230.5C 369.435,233.934 371.435,237.6 373,241.5C 374.202,246.438 372.369,249.438 367.5,250.5 Z"/></g>
<g><path style="opacity:1" fill="#d4a6a3" d="M 236.5,228.5 C 241.084,230.082 244.417,233.082 246.5,237.5C 240.422,251.986 234.088,266.319 227.5,280.5C 223.069,280.769 218.735,280.436 214.5,279.5C 221.554,262.39 228.888,245.39 236.5,228.5 Z"/></g>
<g><path style="opacity:1" fill="#f49347" d="M 448.5,230.5 C 450.564,230.687 452.564,231.187 454.5,232C 456.314,238.026 453.981,240.526 447.5,239.5C 447.5,238.5 447.5,237.5 447.5,236.5C 447.5,235.833 447.5,235.167 447.5,234.5C 448.234,233.292 448.567,231.959 448.5,230.5 Z"/></g>
<g><path style="opacity:1" fill="#fbb07d" d="M 463.5,231.5 C 465.527,231.338 467.527,231.505 469.5,232C 470.155,233.487 471.155,234.653 472.5,235.5C 473.452,237.045 473.785,238.712 473.5,240.5C 473.401,243.237 473.735,245.904 474.5,248.5C 471.728,249.767 469.061,249.767 466.5,248.5C 466.5,246.5 466.5,244.5 466.5,242.5C 465.167,242.5 463.833,242.5 462.5,242.5C 462.323,238.766 462.656,235.099 463.5,231.5 Z"/></g>
<g><path style="opacity:1" fill="#f0a97b" d="M 367.5,250.5 C 367.5,250.833 367.5,251.167 367.5,251.5C 363.441,252.564 359.441,252.564 355.5,251.5C 355.5,251.167 355.5,250.833 355.5,250.5C 354.086,246.759 352.752,242.926 351.5,239C 351.493,237.188 352.16,235.688 353.5,234.5C 355.316,235.815 356.983,237.315 358.5,239C 360.134,239.494 361.801,239.66 363.5,239.5C 363.335,242.85 363.502,246.183 364,249.5C 365.011,250.337 366.178,250.67 367.5,250.5 Z"/></g>
<g><path style="opacity:1" fill="#7d9ff1" d="M 447.5,234.5 C 447.5,235.167 447.5,235.833 447.5,236.5C 446.533,237.806 445.199,238.473 443.5,238.5C 443.167,238.5 442.833,238.5 442.5,238.5C 437.36,237.512 432.026,237.179 426.5,237.5C 428.877,236.113 431.543,235.279 434.5,235C 438.821,234.501 443.154,234.334 447.5,234.5 Z"/></g>
<g><path style="opacity:1" fill="#c9dcf9" d="M 246.5,237.5 C 253.357,248.986 252.857,260.319 245,271.5C 240.34,276.747 234.507,279.747 227.5,280.5C 234.088,266.319 240.422,251.986 246.5,237.5 Z"/></g>
<g><path style="opacity:1" fill="#f99d53" d="M 442.5,238.5 C 442.833,238.5 443.167,238.5 443.5,238.5C 442.701,241.43 442.368,244.43 442.5,247.5C 441.655,248.671 440.989,250.005 440.5,251.5C 439.312,252.684 438.145,252.684 437,251.5C 436.333,249.167 436.333,246.833 437,244.5C 436.815,240.489 438.648,238.489 442.5,238.5 Z"/></g>
<g><path style="opacity:1" fill="#f99747" d="M 152.5,239.5 C 155.327,240.108 157.993,241.108 160.5,242.5C 161.458,242.953 162.292,243.619 163,244.5C 163.315,246.586 163.815,248.586 164.5,250.5C 165.023,254.891 165.69,259.224 166.5,263.5C 165.903,263.735 165.57,264.235 165.5,265C 166.196,266.893 167.03,268.726 168,270.5C 171.11,272.636 174.277,274.636 177.5,276.5C 180.28,279.064 183.28,281.397 186.5,283.5C 186.443,284.609 186.11,285.609 185.5,286.5C 183.784,286.371 182.117,286.038 180.5,285.5C 175.838,283.835 171.172,282.168 166.5,280.5C 157.769,275.4 151.602,268.067 148,258.5C 149.508,271.503 155.675,281.836 166.5,289.5C 166.702,291.95 166.369,294.283 165.5,296.5C 159.018,298.324 152.351,298.991 145.5,298.5C 144.329,297.655 142.995,296.989 141.5,296.5C 141.217,295.711 140.717,295.044 140,294.5C 139.065,282.741 139.731,271.074 142,259.5C 142.977,251.323 146.477,244.656 152.5,239.5 Z"/></g>
<g><path style="opacity:1" fill="#7599ef" d="M 442.5,247.5 C 445.078,252.016 447.578,256.683 450,261.5C 454.925,256.306 460.425,251.972 466.5,248.5C 469.061,249.767 471.728,249.767 474.5,248.5C 477.937,249.134 481.104,250.467 484,252.5C 489.181,262.885 492.347,273.885 493.5,285.5C 493.04,292.589 492.04,299.589 490.5,306.5C 489.5,306.5 488.5,306.5 487.5,306.5C 486.342,299.256 485.508,291.922 485,284.5C 484.085,283.672 483.419,282.672 483,281.5C 481.571,288.719 481.071,296.053 481.5,303.5C 480.778,303.082 480.278,302.416 480,301.5C 472.426,303.417 465.26,302.417 458.5,298.5C 457.078,297.075 455.411,296.075 453.5,295.5C 453.442,287.479 453.776,279.479 454.5,271.5C 452.512,271.827 450.512,272.16 448.5,272.5C 446.626,272.61 445.126,271.944 444,270.5C 441.132,264.49 439.965,258.157 440.5,251.5C 440.989,250.005 441.655,248.671 442.5,247.5 Z"/></g>
<g><path style="opacity:1" fill="#eb8136" d="M 164.5,250.5 C 167.167,252.167 169.833,253.833 172.5,255.5C 173.391,256.11 174.391,256.443 175.5,256.5C 178.344,257.551 181.344,257.551 184.5,256.5C 188.145,256.274 190.812,254.607 192.5,251.5C 193.461,253.265 193.795,255.265 193.5,257.5C 190.907,258.754 188.573,260.42 186.5,262.5C 183.136,264.683 179.47,266.016 175.5,266.5C 172.285,266.095 169.285,265.095 166.5,263.5C 165.69,259.224 165.023,254.891 164.5,250.5 Z"/></g>
<g><path style="opacity:1" fill="#f99647" d="M 355.5,251.5 C 359.441,252.564 363.441,252.564 367.5,251.5C 370.343,252.172 372.843,253.505 375,255.5C 377.921,260.341 380.588,265.341 383,270.5C 383.814,272.902 383.647,275.235 382.5,277.5C 378.382,279.391 374.049,280.391 369.5,280.5C 366.5,280.5 363.5,280.5 360.5,280.5C 359.833,280.5 359.167,280.5 358.5,280.5C 360.119,278.075 359.786,276.075 357.5,274.5C 356.702,272.114 355.702,269.78 354.5,267.5C 350.555,266.509 346.555,266.176 342.5,266.5C 343.498,262.342 344.998,258.342 347,254.5C 349.492,252.503 352.325,251.503 355.5,251.5 Z"/></g>
<g><path style="opacity:1" fill="#7597ed" d="M 193.5,257.5 C 194.669,262.837 196.669,267.837 199.5,272.5C 197.146,275.521 194.479,278.188 191.5,280.5C 189.233,274.776 187.566,268.776 186.5,262.5C 188.573,260.42 190.907,258.754 193.5,257.5 Z"/></g>
<g><path style="opacity:1" fill="#ed7e2c" d="M 166.5,280.5 C 166.5,283.5 166.5,286.5 166.5,289.5C 155.675,281.836 149.508,271.503 148,258.5C 151.602,268.067 157.769,275.4 166.5,280.5 Z"/></g>
<g><path style="opacity:1" fill="#e9edf1" d="M 166.5,263.5 C 169.285,265.095 172.285,266.095 175.5,266.5C 176.374,269.789 177.041,273.123 177.5,276.5C 174.277,274.636 171.11,272.636 168,270.5C 167.03,268.726 166.196,266.893 165.5,265C 165.57,264.235 165.903,263.735 166.5,263.5 Z"/></g>
<g><path style="opacity:1" fill="#a9bcf8" d="M 186.5,262.5 C 187.566,268.776 189.233,274.776 191.5,280.5C 191.5,280.833 191.5,281.167 191.5,281.5C 189.833,282.167 188.167,282.833 186.5,283.5C 183.28,281.397 180.28,279.064 177.5,276.5C 177.041,273.123 176.374,269.789 175.5,266.5C 179.47,266.016 183.136,264.683 186.5,262.5 Z"/></g>
<g><path style="opacity:1" fill="#f57e4a" d="M 309.5,263.5 C 325.689,263.177 332.189,270.844 329,286.5C 323.507,293.344 316.34,295.844 307.5,294C 299.189,290.093 296.023,283.593 298,274.5C 300.437,269.226 304.271,265.56 309.5,263.5 Z"/></g>
<g><path style="opacity:1" fill="#b7483f" d="M 342.5,266.5 C 346.555,266.176 350.555,266.509 354.5,267.5C 355.702,269.78 356.702,272.114 357.5,274.5C 356.507,276.015 354.507,277.015 351.5,277.5C 353.071,280.093 355.404,281.093 358.5,280.5C 359.167,280.5 359.833,280.5 360.5,280.5C 360.971,282.579 361.637,284.579 362.5,286.5C 358.03,287.486 353.363,287.819 348.5,287.5C 347.022,287.762 345.689,287.429 344.5,286.5C 341.236,279.987 338.569,273.32 336.5,266.5C 338.5,266.5 340.5,266.5 342.5,266.5 Z"/></g>
<g><path style="opacity:1" fill="#f7a675" d="M 357.5,274.5 C 359.786,276.075 360.119,278.075 358.5,280.5C 355.404,281.093 353.071,280.093 351.5,277.5C 354.507,277.015 356.507,276.015 357.5,274.5 Z"/></g>
<g><path style="opacity:1" fill="#7598ef" d="M 212.5,282.5 C 208.762,289.048 206.428,296.048 205.5,303.5C 202.223,303.784 199.057,303.451 196,302.5C 195.301,297.371 194.134,292.371 192.5,287.5C 193.6,286.395 194.267,285.062 194.5,283.5C 197.18,280.987 200.013,278.654 203,276.5C 206.468,278.144 209.635,280.144 212.5,282.5 Z"/></g>
<g><path style="opacity:1" fill="#e8eef3" d="M 166.5,280.5 C 171.172,282.168 175.838,283.835 180.5,285.5C 180.702,287.95 180.369,290.283 179.5,292.5C 175.167,296.5 170.833,300.5 166.5,304.5C 166.806,301.615 166.473,298.948 165.5,296.5C 166.369,294.283 166.702,291.95 166.5,289.5C 166.5,286.5 166.5,283.5 166.5,280.5 Z"/></g>
<g><path style="opacity:1" fill="#f5af81" d="M 191.5,281.5 C 191.389,282.117 191.056,282.617 190.5,283C 191.793,283.49 193.127,283.657 194.5,283.5C 194.267,285.062 193.6,286.395 192.5,287.5C 191.833,287.5 191.167,287.5 190.5,287.5C 188.784,287.371 187.117,287.038 185.5,286.5C 186.11,285.609 186.443,284.609 186.5,283.5C 188.167,282.833 189.833,282.167 191.5,281.5 Z"/></g>
<g><path style="opacity:1" fill="#f57e4b" d="M 212.5,282.5 C 217.13,283.229 221.797,283.563 226.5,283.5C 223.561,289.713 220.894,296.046 218.5,302.5C 218.968,307.275 221.301,310.775 225.5,313C 265.801,309.979 306.134,307.145 346.5,304.5C 347.563,308.639 348.23,312.972 348.5,317.5C 308.475,320.085 268.475,323.085 228.5,326.5C 214.538,325.205 206.872,317.538 205.5,303.5C 206.428,296.048 208.762,289.048 212.5,282.5 Z"/></g>
<g><path style="opacity:1" fill="#2c4f95" d="M 360.5,280.5 C 363.5,280.5 366.5,280.5 369.5,280.5C 371.64,284.78 373.807,289.114 376,293.5C 376.497,296.146 376.664,298.813 376.5,301.5C 376.5,304.5 376.5,307.5 376.5,310.5C 376.232,312.099 376.566,313.432 377.5,314.5C 377.335,318.182 377.501,321.848 378,325.5C 379.48,330.102 380.646,334.769 381.5,339.5C 381.833,340.833 382.167,342.167 382.5,343.5C 383.293,349.753 383.793,356.086 384,362.5C 385.353,363.685 386.52,365.019 387.5,366.5C 384.794,368.524 383.461,371.19 383.5,374.5C 380.833,374.5 378.167,374.5 375.5,374.5C 376.315,373.163 377.482,372.163 379,371.5C 379.167,370.167 379.333,368.833 379.5,367.5C 375.844,359.519 372.177,351.519 368.5,343.5C 367.528,340.868 366.195,338.535 364.5,336.5C 363.002,322.175 359.169,308.509 353,295.5C 352.503,293.19 352.337,290.857 352.5,288.5C 356.226,288.823 359.893,288.489 363.5,287.5C 363.376,286.893 363.043,286.56 362.5,286.5C 361.637,284.579 360.971,282.579 360.5,280.5 Z"/></g>
<g><path style="opacity:1" fill="#40649c" d="M 180.5,285.5 C 182.117,286.038 183.784,286.371 185.5,286.5C 187.117,287.038 188.784,287.371 190.5,287.5C 189.473,289.194 188.139,290.527 186.5,291.5C 184.833,292.5 183.5,293.833 182.5,295.5C 182.167,295.5 181.833,295.5 181.5,295.5C 180.094,295.027 179.427,294.027 179.5,292.5C 180.369,290.283 180.702,287.95 180.5,285.5 Z"/></g>
<g><path style="opacity:1" fill="#afc2fd" d="M 190.5,287.5 C 191.167,287.5 191.833,287.5 192.5,287.5C 194.134,292.371 195.301,297.371 196,302.5C 199.057,303.451 202.223,303.784 205.5,303.5C 206.872,317.538 214.538,325.205 228.5,326.5C 268.475,323.085 308.475,320.085 348.5,317.5C 349.792,324.79 350.792,332.123 351.5,339.5C 300.167,339.5 248.833,339.5 197.5,339.5C 194.469,323.374 190.802,307.374 186.5,291.5C 188.139,290.527 189.473,289.194 190.5,287.5 Z"/></g>
<g><path style="opacity:1" fill="#96b2f3" d="M 186.5,291.5 C 190.802,307.374 194.469,323.374 197.5,339.5C 197.047,340.458 196.381,341.292 195.5,342C 216.164,342.5 236.831,342.667 257.5,342.5C 257.81,345.713 257.477,348.713 256.5,351.5C 256.5,348.833 256.5,346.167 256.5,343.5C 235.5,343.5 214.5,343.5 193.5,343.5C 189.621,327.57 185.955,311.57 182.5,295.5C 183.5,293.833 184.833,292.5 186.5,291.5 Z"/></g>
<g><path style="opacity:1" fill="#7498ed" d="M 179.5,292.5 C 179.427,294.027 180.094,295.027 181.5,295.5C 176.473,301.194 171.14,306.527 165.5,311.5C 163.449,313.038 161.782,312.704 160.5,310.5C 162.188,308.146 164.188,306.146 166.5,304.5C 170.833,300.5 175.167,296.5 179.5,292.5 Z"/></g>
<g><path style="opacity:1" fill="#2b4f95" d="M 165.5,296.5 C 166.473,298.948 166.806,301.615 166.5,304.5C 164.188,306.146 162.188,308.146 160.5,310.5C 161.782,312.704 163.449,313.038 165.5,311.5C 164.737,323.2 163.57,334.867 162,346.5C 161.5,353.826 161.334,361.159 161.5,368.5C 159.236,369.219 156.903,369.552 154.5,369.5C 152.366,361.861 150.7,354.194 149.5,346.5C 150.462,330.261 149.129,314.261 145.5,298.5C 152.351,298.991 159.018,298.324 165.5,296.5 Z"/></g>
<g><path style="opacity:1" fill="#293d69" d="M 453.5,295.5 C 455.411,296.075 457.078,297.075 458.5,298.5C 461.972,307.441 465.972,316.108 470.5,324.5C 469.523,327.287 469.19,330.287 469.5,333.5C 464.441,325.73 459.608,317.73 455,309.5C 454.506,311.134 454.34,312.801 454.5,314.5C 453.51,308.355 453.177,302.022 453.5,295.5 Z"/></g>
<g><path style="opacity:1" fill="#233864" d="M 141.5,296.5 C 142.995,296.989 144.329,297.655 145.5,298.5C 149.129,314.261 150.462,330.261 149.5,346.5C 148.833,348.833 148.167,351.167 147.5,353.5C 144.83,346.489 142.163,339.489 139.5,332.5C 141.307,320.6 141.973,308.6 141.5,296.5 Z"/></g>
<g><path style="opacity:1" fill="#e7f0f8" d="M 181.5,295.5 C 181.833,295.5 182.167,295.5 182.5,295.5C 185.955,311.57 189.621,327.57 193.5,343.5C 214.5,343.5 235.5,343.5 256.5,343.5C 256.5,346.167 256.5,348.833 256.5,351.5C 254.855,359.339 255.189,367.005 257.5,374.5C 228.159,374.833 198.826,374.5 169.5,373.5C 166.442,372.312 163.775,370.646 161.5,368.5C 161.334,361.159 161.5,353.826 162,346.5C 163.57,334.867 164.737,323.2 165.5,311.5C 171.14,306.527 176.473,301.194 181.5,295.5 Z"/></g>
<g><path style="opacity:1" fill="#2d5197" d="M 458.5,298.5 C 465.26,302.417 472.426,303.417 480,301.5C 480.278,302.416 480.778,303.082 481.5,303.5C 482.279,309.34 483.779,315.007 486,320.5C 489.47,325.774 492.136,331.44 494,337.5C 495.656,345.783 496.823,354.116 497.5,362.5C 495.668,363.248 494.001,364.248 492.5,365.5C 484.403,352.311 477.07,338.644 470.5,324.5C 465.972,316.108 461.972,307.441 458.5,298.5 Z"/></g>
<g><path style="opacity:1" fill="#fcb789" d="M 487.5,306.5 C 488.5,306.5 489.5,306.5 490.5,306.5C 490.579,309.271 490.079,311.937 489,314.5C 487.663,313.096 486.497,311.596 485.5,310C 485.808,308.541 486.475,307.374 487.5,306.5 Z"/></g>
<g><path style="opacity:1" fill="#2c5096" d="M 469.5,333.5 C 469.308,345.323 467.808,356.99 465,368.5C 464.617,369.056 464.117,369.389 463.5,369.5C 461.297,369.065 459.297,369.065 457.5,369.5C 456.991,351.135 455.991,332.802 454.5,314.5C 454.34,312.801 454.506,311.134 455,309.5C 459.608,317.73 464.441,325.73 469.5,333.5 Z"/></g>
<g><path style="opacity:1" fill="#afc2fd" d="M 401.5,312.5 C 402.833,312.5 404.167,312.5 405.5,312.5C 407.377,321.431 409.71,330.264 412.5,339C 412.43,339.765 412.097,340.265 411.5,340.5C 401.681,339.506 391.681,339.173 381.5,339.5C 380.646,334.769 379.48,330.102 378,325.5C 377.501,321.848 377.335,318.182 377.5,314.5C 379.099,314.768 380.432,314.434 381.5,313.5C 388.148,312.861 394.814,312.527 401.5,312.5 Z"/></g>
<g><path style="opacity:1" fill="#cc8980" d="M 376.5,310.5 C 377.404,311.209 377.737,312.209 377.5,313.5C 378.833,313.5 380.167,313.5 381.5,313.5C 380.432,314.434 379.099,314.768 377.5,314.5C 376.566,313.432 376.232,312.099 376.5,310.5 Z"/></g>
<g><path style="opacity:1" fill="#e3ecf5" d="M 470.5,324.5 C 477.07,338.644 484.403,352.311 492.5,365.5C 493.172,368.908 492.172,371.575 489.5,373.5C 480.859,374.498 472.192,374.831 463.5,374.5C 463.5,372.833 463.5,371.167 463.5,369.5C 464.117,369.389 464.617,369.056 465,368.5C 467.808,356.99 469.308,345.323 469.5,333.5C 469.19,330.287 469.523,327.287 470.5,324.5 Z"/></g>
<g><path style="opacity:1" fill="#2e5197" d="M 139.5,332.5 C 142.163,339.489 144.83,346.489 147.5,353.5C 146.607,358.523 145.607,363.523 144.5,368.5C 141.833,368.5 139.167,368.5 136.5,368.5C 135.883,356.319 136.883,344.319 139.5,332.5 Z"/></g>
<g><path style="opacity:1" fill="#789cea" d="M 197.5,339.5 C 248.833,339.5 300.167,339.5 351.5,339.5C 351.5,340.833 351.5,342.167 351.5,343.5C 335.167,343.5 318.833,343.5 302.5,343.5C 288.167,343.5 273.833,343.5 259.5,343.5C 258.945,347.012 259.612,350.012 261.5,352.5C 260.791,353.404 259.791,353.737 258.5,353.5C 258.5,356.5 258.5,359.5 258.5,362.5C 257.357,365.068 257.524,367.735 259,370.5C 262.373,371.671 265.54,373.005 268.5,374.5C 264.833,374.5 261.167,374.5 257.5,374.5C 255.189,367.005 254.855,359.339 256.5,351.5C 257.477,348.713 257.81,345.713 257.5,342.5C 236.831,342.667 216.164,342.5 195.5,342C 196.381,341.292 197.047,340.458 197.5,339.5 Z"/></g>
<g><path style="opacity:1" fill="#7a98dd" d="M 364.5,336.5 C 366.195,338.535 367.528,340.868 368.5,343.5C 367.167,343.5 365.833,343.5 364.5,343.5C 364.5,341.167 364.5,338.833 364.5,336.5 Z"/></g>
<g><path style="opacity:1" fill="#7ea0eb" d="M 381.5,339.5 C 391.681,339.173 401.681,339.506 411.5,340.5C 409.745,341.072 408.078,341.906 406.5,343C 398.507,343.5 390.507,343.666 382.5,343.5C 382.167,342.167 381.833,340.833 381.5,339.5 Z"/></g>
<g><path style="opacity:1" fill="#5988dd" d="M 302.5,343.5 C 302.5,344.167 302.5,344.833 302.5,345.5C 288.872,347.958 275.205,350.292 261.5,352.5C 259.612,350.012 258.945,347.012 259.5,343.5C 273.833,343.5 288.167,343.5 302.5,343.5 Z"/></g>
<g><path style="opacity:1" fill="#e7f0f8" d="M 302.5,343.5 C 318.833,343.5 335.167,343.5 351.5,343.5C 353.144,350.616 354.311,357.949 355,365.5C 358.161,367.416 357.994,369.25 354.5,371C 352.5,371.833 350.5,372.667 348.5,373.5C 337.186,374.499 325.853,374.832 314.5,374.5C 314.5,373.5 314.5,372.5 314.5,371.5C 310.033,371.867 305.7,371.367 301.5,370C 300.544,366.606 300.211,363.106 300.5,359.5C 301.521,355.02 302.187,350.353 302.5,345.5C 302.5,344.833 302.5,344.167 302.5,343.5 Z"/></g>
<g><path style="opacity:1" fill="#e5eef6" d="M 364.5,343.5 C 365.833,343.5 367.167,343.5 368.5,343.5C 372.177,351.519 375.844,359.519 379.5,367.5C 379.333,368.833 379.167,370.167 379,371.5C 377.482,372.163 376.315,373.163 375.5,374.5C 371.5,374.5 367.5,374.5 363.5,374.5C 363.716,364.162 364.049,353.829 364.5,343.5 Z"/></g>
<g><path style="opacity:1" fill="#90aef4" d="M 302.5,345.5 C 302.187,350.353 301.521,355.02 300.5,359.5C 286.911,360.821 273.244,363.155 259.5,366.5C 258.571,365.311 258.238,363.978 258.5,362.5C 258.5,359.5 258.5,356.5 258.5,353.5C 259.791,353.737 260.791,353.404 261.5,352.5C 275.205,350.292 288.872,347.958 302.5,345.5 Z"/></g>
<g><path style="opacity:1" fill="#a8cfa3" d="M 119.5,374.5 C 112.833,374.5 106.167,374.5 99.5,374.5C 99.6107,373.883 99.944,373.383 100.5,373C 103.167,372.667 105.833,372.333 108.5,372C 105.42,369.71 102.253,367.543 99,365.5C 98.5429,360.195 100.543,359.195 105,362.5C 106.737,365.397 108.237,368.397 109.5,371.5C 110.167,372.833 110.833,372.833 111.5,371.5C 109.146,365.291 106.146,359.457 102.5,354C 102.734,352.268 103.734,351.434 105.5,351.5C 108.032,351.864 109.865,353.197 111,355.5C 112.962,360.656 113.795,365.989 113.5,371.5C 115.5,371.5 117.5,371.5 119.5,371.5C 119.5,372.5 119.5,373.5 119.5,374.5 Z"/></g>
<g><path style="opacity:1" fill="#d7e2ee" d="M 149.5,346.5 C 150.7,354.194 152.366,361.861 154.5,369.5C 154.785,371.288 154.452,372.955 153.5,374.5C 149.957,373.222 146.957,371.222 144.5,368.5C 145.607,363.523 146.607,358.523 147.5,353.5C 148.167,351.167 148.833,348.833 149.5,346.5 Z"/></g>
<g><path style="opacity:1" fill="#a8cfa3" d="M 428.5,374.5 C 422.167,374.5 415.833,374.5 409.5,374.5C 409.414,373.504 409.748,372.671 410.5,372C 412.134,371.506 413.801,371.34 415.5,371.5C 414.965,365.467 416.132,359.801 419,354.5C 421.041,353.577 423.208,353.244 425.5,353.5C 423.005,359.33 420.338,365.163 417.5,371C 417.667,371.5 417.833,372 418,372.5C 419.833,369.5 421.667,366.5 423.5,363.5C 427.078,360.408 428.911,361.075 429,365.5C 426.257,367.788 423.423,369.955 420.5,372C 423.522,372.098 426.189,372.932 428.5,374.5 Z"/></g>
<g><path style="opacity:1" fill="#80a2ea" d="M 300.5,359.5 C 300.211,363.106 300.544,366.606 301.5,370C 305.7,371.367 310.033,371.867 314.5,371.5C 314.5,372.5 314.5,373.5 314.5,374.5C 299.167,374.5 283.833,374.5 268.5,374.5C 265.54,373.005 262.373,371.671 259,370.5C 257.524,367.735 257.357,365.068 258.5,362.5C 258.238,363.978 258.571,365.311 259.5,366.5C 273.244,363.155 286.911,360.821 300.5,359.5 Z"/></g>
<g><path style="opacity:1" fill="#2c3c68" d="M 362.5,286.5 C 363.043,286.56 363.376,286.893 363.5,287.5C 359.893,288.489 356.226,288.823 352.5,288.5C 352.337,290.857 352.503,293.19 353,295.5C 359.169,308.509 363.002,322.175 364.5,336.5C 364.5,338.833 364.5,341.167 364.5,343.5C 364.049,353.829 363.716,364.162 363.5,374.5C 367.5,374.5 371.5,374.5 375.5,374.5C 378.167,374.5 380.833,374.5 383.5,374.5C 392.167,374.5 400.833,374.5 409.5,374.5C 415.833,374.5 422.167,374.5 428.5,374.5C 435.508,374.666 442.508,374.5 449.5,374C 452.191,372.395 454.858,370.895 457.5,369.5C 459.297,369.065 461.297,369.065 463.5,369.5C 463.5,371.167 463.5,372.833 463.5,374.5C 472.192,374.831 480.859,374.498 489.5,373.5C 492.172,371.575 493.172,368.908 492.5,365.5C 494.001,364.248 495.668,363.248 497.5,362.5C 498.582,363.594 499.248,364.927 499.5,366.5C 497.971,368.871 496.638,371.371 495.5,374C 505.577,374.807 515.577,374.64 525.5,373.5C 531.176,373.334 536.843,373.501 542.5,374C 543.833,374.667 543.833,375.333 542.5,376C 384.833,376.667 227.167,376.667 69.5,376C 68.1667,375.333 68.1667,374.667 69.5,374C 74.4889,373.501 79.4889,373.334 84.5,373.5C 89.3054,374.487 94.3054,374.821 99.5,374.5C 106.167,374.5 112.833,374.5 119.5,374.5C 125.5,374.5 131.5,374.5 137.5,374.5C 137.483,372.435 137.15,370.435 136.5,368.5C 139.167,368.5 141.833,368.5 144.5,368.5C 146.957,371.222 149.957,373.222 153.5,374.5C 154.452,372.955 154.785,371.288 154.5,369.5C 156.903,369.552 159.236,369.219 161.5,368.5C 163.775,370.646 166.442,372.312 169.5,373.5C 198.826,374.5 228.159,374.833 257.5,374.5C 261.167,374.5 264.833,374.5 268.5,374.5C 283.833,374.5 299.167,374.5 314.5,374.5C 325.853,374.832 337.186,374.499 348.5,373.5C 350.5,372.667 352.5,371.833 354.5,371C 357.994,369.25 358.161,367.416 355,365.5C 354.311,357.949 353.144,350.616 351.5,343.5C 351.5,342.167 351.5,340.833 351.5,339.5C 350.792,332.123 349.792,324.79 348.5,317.5C 348.23,312.972 347.563,308.639 346.5,304.5C 346.436,298.738 347.103,293.071 348.5,287.5C 353.363,287.819 358.03,287.486 362.5,286.5 Z"/></g>
</svg>
